<mxfile host="app.diagrams.net" modified="2024-07-02T14:43:49.682Z" agent="Mozilla/5.0 (Windows NT 10.0; Win64; x64) AppleWebKit/537.36 (KHTML, like Gecko) Chrome/126.0.0.0 Safari/537.36" version="24.3.1" etag="JThGs2nC0Byk_8_y15RJ" type="github">
  <diagram name="Page-1" id="3lCV9RktZLNzGsNqKrb4">
    <mxGraphModel>
      <root>
        <mxCell id="0" />
        <mxCell id="1" parent="0" />
      </root>
    </mxGraphModel>
  </diagram>
</mxfile>
